<?xml version="1.0" encoding="UTF-8" standalone="no"?> <svg width="64" height="64" viewBox="0 0 64 64" fill="none" xmlns="http://www.w3.org/2000/svg">
<path d="M31.79 3.66003C26.1848 3.66003 20.7056 5.32215 16.0451 8.43619C11.3846 11.5502 7.75221 15.9763 5.60722 21.1548C3.46223 26.3332 2.901 32.0315 3.99451 37.5289C5.08801 43.0263 7.78714 48.076 11.7506 52.0394C15.714 56.0029 20.7637 58.702 26.2611 59.7955C31.7585 60.889 37.4568 60.3278 42.6352 58.1828C47.8137 56.0378 52.2398 52.4054 55.3538 47.7449C58.4679 43.0844 60.13 37.6052 60.13 32C60.13 28.2784 59.3969 24.5932 57.9727 21.1548C56.5485 17.7164 54.461 14.5922 51.8294 11.9606C49.1978 9.32902 46.0736 7.24151 42.6352 5.81729C39.1968 4.39307 35.5116 3.66003 31.79 3.66003V3.66003ZM31.79 52.99C27.6366 52.99 23.5764 51.7584 20.123 49.4509C16.6696 47.1434 13.9779 43.8636 12.3885 40.0264C10.7991 36.1891 10.3832 31.9667 11.1935 27.8931C12.0038 23.8195 14.0038 20.0777 16.9407 17.1408C19.8776 14.2039 23.6195 12.2038 27.6931 11.3935C31.7667 10.5833 35.9891 10.9991 39.8263 12.5886C43.6636 14.178 46.9433 16.8696 49.2508 20.3231C51.5583 23.7765 52.79 27.8366 52.79 31.99C52.7913 34.7486 52.2491 37.4805 51.1943 40.0295C50.1395 42.5784 48.5929 44.8947 46.6427 46.8457C44.6926 48.7968 42.3771 50.3446 39.8286 51.4005C37.2801 52.4565 34.5486 53 31.79 53V52.99Z" fill="#78B9EB"/>
<path d="M42.45 21.4899L37.42 20.9899L32 26.9399L25.38 20.8199L21.58 21.5399L20.48 25.3399L26.65 32.3499L20.48 38.6099L22.38 43.0399H25.84L32 37.5099L39.37 43.4199L42.75 41.8999L43.13 37.6799L36.87 31.9999L43.51 25.1299L42.45 21.4899Z" fill="#78B9EB"/>
<path d="M32 10C27.6488 10 23.3953 11.2903 19.7775 13.7077C16.1596 16.1251 13.3398 19.561 11.6747 23.581C10.0095 27.6009 9.57386 32.0244 10.4227 36.292C11.2716 40.5596 13.3669 44.4796 16.4437 47.5564C19.5204 50.6331 23.4404 52.7284 27.708 53.5773C31.9756 54.4261 36.3991 53.9905 40.419 52.3253C44.439 50.6602 47.875 47.8404 50.2923 44.2225C52.7097 40.6047 54 36.3512 54 32C54 26.1652 51.6822 20.5695 47.5564 16.4437C43.4306 12.3179 37.8348 10 32 10ZM32 52C28.0444 52 24.1776 50.827 20.8886 48.6294C17.5996 46.4318 15.0362 43.3082 13.5224 39.6537C12.0087 35.9991 11.6126 31.9778 12.3843 28.0982C13.156 24.2186 15.0608 20.6549 17.8579 17.8579C20.6549 15.0608 24.2186 13.156 28.0982 12.3843C31.9778 11.6126 35.9992 12.0087 39.6537 13.5224C43.3082 15.0362 46.4318 17.5996 48.6294 20.8886C50.827 24.1776 52 28.0444 52 32C52 37.3043 49.8929 42.3914 46.1421 46.1421C42.3914 49.8929 37.3043 52 32 52Z" fill="#006DF0"/>
<path d="M32 3C26.2644 3 20.6575 4.70082 15.8885 7.88738C11.1195 11.0739 7.40245 15.6031 5.20751 20.9022C3.01257 26.2012 2.43827 32.0322 3.55724 37.6576C4.67621 43.2831 7.43819 48.4504 11.4939 52.5061C15.5496 56.5618 20.7169 59.3238 26.3424 60.4428C31.9678 61.5617 37.7988 60.9874 43.0978 58.7925C48.3969 56.5976 52.9261 52.8806 56.1126 48.1115C59.2992 43.3425 61 37.7357 61 32C61 24.3087 57.9447 16.9325 52.5061 11.4939C47.0676 6.05535 39.6913 3 32 3V3ZM32 59C26.6599 59 21.4397 57.4165 16.9996 54.4497C12.5595 51.4829 9.09883 47.2661 7.05527 42.3325C5.0117 37.3988 4.47701 31.97 5.51881 26.7326C6.56061 21.4951 9.13211 16.6841 12.9081 12.9081C16.6841 9.1321 21.4951 6.5606 26.7326 5.5188C31.9701 4.477 37.3989 5.01169 42.3325 7.05525C47.2661 9.09882 51.4829 12.5595 54.4497 16.9996C57.4165 21.4397 59 26.6599 59 32C59 39.1608 56.1554 46.0284 51.0919 51.0919C46.0284 56.1554 39.1609 59 32 59Z" fill="#006DF0"/>
<path d="M42.89 21.11C42.039 20.2618 40.8865 19.7855 39.685 19.7855C38.4835 19.7855 37.331 20.2618 36.48 21.11L32 25.59L27.52 21.11C26.67 20.26 25.5171 19.7825 24.315 19.7825C23.1129 19.7825 21.96 20.26 21.11 21.11C20.26 21.96 19.7825 23.1129 19.7825 24.315C19.7825 25.5171 20.26 26.67 21.11 27.52L25.59 32L21.11 36.48C20.26 37.33 19.7825 38.4829 19.7825 39.685C19.7825 40.8871 20.26 42.04 21.11 42.89C21.96 43.74 23.1129 44.2176 24.315 44.2176C25.5171 44.2176 26.67 43.74 27.52 42.89L32 38.41L36.48 42.89C36.9009 43.3109 37.4006 43.6448 37.9505 43.8726C38.5004 44.1003 39.0898 44.2176 39.685 44.2176C40.2802 44.2176 40.8696 44.1003 41.4196 43.8726C41.9695 43.6448 42.4691 43.3109 42.89 42.89C43.3109 42.4691 43.6448 41.9695 43.8726 41.4196C44.1003 40.8696 44.2176 40.2802 44.2176 39.685C44.2176 39.0898 44.1003 38.5004 43.8726 37.9505C43.6448 37.4006 43.3109 36.9009 42.89 36.48L38.41 32L42.89 27.52C43.7358 26.6678 44.2104 25.5157 44.2104 24.315C44.2104 23.1143 43.7358 21.9623 42.89 21.11ZM41.47 26.11L36.29 31.29C36.1963 31.383 36.1219 31.4936 36.0711 31.6154C36.0204 31.7373 35.9942 31.868 35.9942 32C35.9942 32.132 36.0204 32.2627 36.0711 32.3846C36.1219 32.5065 36.1963 32.6171 36.29 32.71L41.47 37.89C41.9448 38.3648 42.2115 39.0086 42.2115 39.68C42.2115 40.3514 41.9448 40.9953 41.47 41.47C40.9953 41.9448 40.3514 42.2115 39.68 42.2115C39.0086 42.2115 38.3648 41.9448 37.89 41.47L32.71 36.29C32.6171 36.1963 32.5065 36.1219 32.3846 36.0711C32.2627 36.0204 32.132 35.9942 32 35.9942C31.868 35.9942 31.7373 36.0204 31.6154 36.0711C31.4936 36.1219 31.383 36.1963 31.29 36.29L26.11 41.47C25.6353 41.9448 24.9914 42.2115 24.32 42.2115C23.6486 42.2115 23.0048 41.9448 22.53 41.47C22.0553 40.9953 21.7886 40.3514 21.7886 39.68C21.7886 39.0086 22.0553 38.3648 22.53 37.89L27.71 32.71C27.8038 32.6171 27.8781 32.5065 27.9289 32.3846C27.9797 32.2627 28.0058 32.132 28.0058 32C28.0058 31.868 27.9797 31.7373 27.9289 31.6154C27.8781 31.4936 27.8038 31.383 27.71 31.29L22.53 26.11C22.2948 25.8751 22.1082 25.596 21.9808 25.2889C21.8535 24.9817 21.788 24.6525 21.788 24.32C21.788 23.9875 21.8535 23.6583 21.9808 23.3512C22.1082 23.044 22.2948 22.765 22.53 22.53C22.765 22.2948 23.044 22.1082 23.3512 21.9808C23.6583 21.8535 23.9875 21.788 24.32 21.788C24.6525 21.788 24.9817 21.8535 25.2889 21.9808C25.596 22.1082 25.8751 22.2948 26.11 22.53L31.29 27.71C31.383 27.8038 31.4936 27.8781 31.6154 27.9289C31.7373 27.9797 31.868 28.0058 32 28.0058C32.132 28.0058 32.2627 27.9797 32.3846 27.9289C32.5065 27.8781 32.6171 27.8038 32.71 27.71L37.89 22.53C38.3648 22.0553 39.0086 21.7886 39.68 21.7886C40.3514 21.7886 40.9953 22.0553 41.47 22.53C41.9448 23.0048 42.2115 23.6486 42.2115 24.32C42.2115 24.9914 41.9448 25.6353 41.47 26.11V26.11Z" fill="#006DF0"/>
</svg>
